<svg data-v-fde0c5aa="" xmlns="http://www.w3.org/2000/svg" viewBox="0 0 300 300" class="iconAbove"><!----><defs data-v-fde0c5aa=""><!----></defs><rect data-v-fde0c5aa="" fill="#333333" x="0" y="0" width="300px" height="300px" class="logo-background-square"></rect><defs data-v-fde0c5aa=""><!----></defs><g data-v-fde0c5aa="" id="1d5e401c-8bb3-44f5-b45b-d13b6bffba82" fill="#D48372"><path d=""></path></g><defs data-v-fde0c5aa=""><!----></defs><g data-v-fde0c5aa="" id="7436c578-f34c-4cfb-9912-6661f7cc00c0" stroke="none" fill="#33a5a5"><path d="M34.449 72.826L23.851 41.064l26.853-21.056 27.455 21.056-10.2 32.344-33.51-.582zM2.878 34.373l.892 31.908 17.192 23.602 12.24-15.092-11.28-34.152-19.044-6.266zM67.664 75.568l-33.525-.201L23.358 90.52l27.099 8.449 27.684-8.83-10.477-14.571zM4.499 33.375L21.4 10.646 49.374 1.03v16.901L22.35 39.216 4.499 33.375zM52.702 1.047l27.682 9.325 16.153 23.325-17.028 5.967-27.1-21.423.293-17.194zM69.944 74.227l10.415-31.761 16.762-5.829-.076 28.558-16.609 23.311-10.492-14.279z"></path></g><!----></svg>