<svg data-v-423bf9ae="" xmlns="http://www.w3.org/2000/svg" viewBox="0 0 NaN NaN" class="iconAbove"><!----><!----><!----><g data-v-423bf9ae="" id="1ecd4a94-dbbb-4724-a8bd-78edfc4fc8c3" fill="white" transform="matrix(Infinity,0,0,Infinity,0,0)"><path d=""></path></g><!----><g data-v-423bf9ae="" id="0a7d657a-fa9d-4074-b996-01aa21d05096" transform="matrix(1.0882110595703125,0,0,1.0882110595703125,-4.410509044431819,-0.38000634653508314)" stroke="none" fill="white"><path d="M34.449 72.826L23.851 41.064l26.853-21.056 27.455 21.056-10.2 32.344-33.51-.582zM2.878 34.373l.892 31.908 17.192 23.602 12.24-15.092-11.28-34.152-19.044-6.266zM67.664 75.568l-33.525-.201L23.358 90.52l27.099 8.449 27.684-8.83-10.477-14.571zM4.499 33.375L21.4 10.646 49.374 1.03v16.901L22.35 39.216 4.499 33.375zM52.702 1.047l27.682 9.325 16.153 23.325-17.028 5.967-27.1-21.423.293-17.194zM69.944 74.227l10.415-31.761 16.762-5.829-.076 28.558-16.609 23.311-10.492-14.279z"></path></g><!----></svg>